<svg width="75" height="75" viewBox="0 0 75 75" fill="none" xmlns="http://www.w3.org/2000/svg">
<circle cx="37.0591" cy="37.059" r="37.059" fill="black"/>
<path d="M10.6894 46.0591V29.1151H13.3294L14.4574 32.4991V46.0591H10.6894ZM22.3774 46.0591L12.3934 33.2671L13.3294 29.1151L23.3134 41.9071L22.3774 46.0591ZM22.3774 46.0591L21.3694 42.6751V29.1151H25.1374V46.0591H22.3774ZM28.1441 46.0591V29.1151H31.9121V46.0591H28.1441ZM31.0241 46.0591V42.7951H40.3121V46.0591H31.0241ZM31.0241 38.9791V35.8351H39.4721V38.9791H31.0241ZM31.0241 32.3551V29.1151H40.1921V32.3551H31.0241ZM46.8697 46.0591L41.4217 29.1151H45.1657L49.1497 42.1471H47.6857L51.5737 29.1151H54.5257L58.4137 42.1471H56.9737L60.9337 29.1151H64.6537L59.2057 46.0591H56.2537L52.3417 33.0271H53.7337L49.8217 46.0591H46.8697Z" fill="white"/>
</svg>
